# xmcd CD database file
#
# Track frame offsets:
#	150
#	5771
#	16778
#	33917
#	49367
#	63380
#	76660
#	94131
#	109736
#	126996
#	143238
#	155355
#	167681
#	181195
#	194273
#	211543
#	224590
#	237285
#	255859
#	271590
#	289927
#
# Disc length: 4200 seconds
#
# Revision: 0
# Processed by: cddbd v1.5.1PL2 Copyright (c) Steve Scherf et al.
# Submitted via: CDex 1.50
#
DISCID=1a106615
DTITLE=SWINGIN' FIREBALLS - In The Mood For Swing!
DYEAR=1900
DGENRE=Jazz
TTITLE0=Azzurro
TTITLE1=Goody Goody
TTITLE2=After You've Gone
TTITLE3=Leon Baby
TTITLE4=I Still Love You All
TTITLE5=What A Difference A Day Made
TTITLE6=Little Ole Winedrinker Me
TTITLE7=Brazil
TTITLE8=On The Streets Where You Live
TTITLE9=Swing It Mr. B.!
TTITLE10=Love, Your Spell Is Everywhere
TTITLE11=Olivera
TTITLE12=The Lip
TTITLE13=South Of The Border
TTITLE14=In The Mood
TTITLE15=I Love Paris
TTITLE16=Mr. Anthony's Boogie
TTITLE17=Besame Mucho
TTITLE18=In A Little Spanish Town
TTITLE19=Teach Me Tonight
TTITLE20=Danke Schoen
EXTD=
EXTT0=
EXTT1=
EXTT2=
EXTT3=
EXTT4=
EXTT5=
EXTT6=
EXTT7=
EXTT8=
EXTT9=
EXTT10=
EXTT11=
EXTT12=
EXTT13=
EXTT14=
EXTT15=
EXTT16=
EXTT17=
EXTT18=
EXTT19=
EXTT20=
PLAYORDER=
